{
  "accessors": [
    {
      "bufferView": 2,
      "componentType": 5126,
      "count": 2200,
      "max": [
        33.23234939575195,
        30.84922981262207,
        22.968910217285156
      ],
      "min": [
        -33.23234939575195,
        -26.748106002807617,
        -20.97239875793457
      ],
      "type": "VEC3"
    },
    {
      "bufferView": 2,
      "byteOffset": 26400,
      "componentType": 5126,
      "count": 2200,
      "max": [
        0.9953685402870178,
        0.999072790145874,
        0.9322258830070496
      ],
      "min": [
        -0.9953685402870178,
        -0.9990618824958801,
        -0.9639869332313538
      ],
      "type": "VEC3"
    },
    {
      "bufferView": 3,
      "componentType": 5126,
      "count": 2200,
      "max": [
        1.0,
        0.9831604361534119,
        0.999539315700531,
        1.0
      ],
      "min": [
        -0.8903810381889343,
        -0.9831830263137817,
        -0.9995388984680176,
        1.0
      ],
      "type": "VEC4"
    },
    {
      "bufferView": 1,
      "componentType": 5126,
      "count": 2200,
      "max": [
        1.0,
        0.9727155566215515
      ],
      "min": [
        0.285753071308136,
        1.378523734274495e-06
      ],
      "type": "VEC2"
    },
    {
      "bufferView": 0,
      "componentType": 5125,
      "count": 9048,
      "type": "SCALAR"
    },
    {
      "bufferView": 2,
      "byteOffset": 52800,
      "componentType": 5126,
      "count": 369,
      "max": [
        23.996355056762695,
        26.83238410949707,
        26.700817108154297
      ],
      "min": [
        -23.996355056762695,
        -24.560766220092773,
        13.080947875976563
      ],
      "type": "VEC3"
    },
    {
      "bufferView": 2,
      "byteOffset": 57228,
      "componentType": 5126,
      "count": 369,
      "max": [
        0.6798511743545532,
        0.6704114675521851,
        0.9995130896568298
      ],
      "min": [
        -0.6798511743545532,
        -0.8801371455192566,
        0.4747196435928345
      ],
      "type": "VEC3"
    },
    {
      "bufferView": 3,
      "byteOffset": 35200,
      "componentType": 5126,
      "count": 369,
      "max": [
        1.0,
        0.3227700889110565,
        0.6130831241607666,
        1.0
      ],
      "min": [
        0.7332455515861511,
        -0.3227730989456177,
        -0.6130831241607666,
        1.0
      ],
      "type": "VEC4"
    },
    {
      "bufferView": 1,
      "byteOffset": 17600,
      "componentType": 5126,
      "count": 369,
      "max": [
        0.6745400428771973,
        0.6404656171798706
      ],
      "min": [
        0.3764486014842987,
        0.3137214183807373
      ],
      "type": "VEC2"
    },
    {
      "bufferView": 0,
      "byteOffset": 36192,
      "componentType": 5125,
      "count": 2004,
      "type": "SCALAR"
    },
    {
      "bufferView": 2,
      "byteOffset": 61656,
      "componentType": 5126,
      "count": 570,
      "max": [
        28.70497703552246,
        20.918895721435547,
        -10.373435974121094
      ],
      "min": [
        -28.70497703552246,
        -24.308975219726563,
        -42.5428352355957
      ],
      "type": "VEC3"
    },
    {
      "bufferView": 2,
      "byteOffset": 68496,
      "componentType": 5126,
      "count": 570,
      "max": [
        0.017425069585442543,
        0.24754534661769867,
        -0.3063446581363678
      ],
      "min": [
        -0.017425069585442543,
        -0.951920747756958,
        -0.9999883770942688
      ],
      "type": "VEC3"
    },
    {
      "bufferView": 3,
      "byteOffset": 41104,
      "componentType": 5126,
      "count": 570,
      "max": [
        -0.9994586706161499,
        0.03182939440011978,
        0.027796806767582893,
        1.0
      ],
      "min": [
        -1.0,
        -0.024138299748301506,
        -0.01861702650785446,
        1.0
      ],
      "type": "VEC4"
    },
    {
      "bufferView": 1,
      "byteOffset": 20552,
      "componentType": 5126,
      "count": 570,
      "max": [
        0.32725629210472107,
        0.6746740937232971
      ],
      "min": [
        0.0,
        0.33493906259536743
      ],
      "type": "VEC2"
    },
    {
      "bufferView": 0,
      "byteOffset": 44208,
      "componentType": 5125,
      "count": 2994,
      "type": "SCALAR"
    },
    {
      "bufferView": 2,
      "byteOffset": 75336,
      "componentType": 5126,
      "count": 454,
      "max": [
        20.820106506347656,
        15.734840393066406,
        -10.391483306884766
      ],
      "min": [
        -20.820106506347656,
        -17.895214080810547,
        -34.90949249267578
      ],
      "type": "VEC3"
    },
    {
      "bufferView": 2,
      "byteOffset": 80784,
      "componentType": 5126,
      "count": 454,
      "max": [
        0.983238935470581,
        0.548099935054779,
        0.12496279925107956
      ],
      "min": [
        -0.983238935470581,
        -0.9997938871383667,
        -0.9987080693244934
      ],
      "type": "VEC3"
    },
    {
      "bufferView": 3,
      "byteOffset": 50224,
      "componentType": 5126,
      "count": 454,
      "max": [
        -0.17574025690555573,
        0.6201731562614441,
        0.8814107179641724,
        1.0
      ],
      "min": [
        -1.0,
        -0.6201736927032471,
        -0.881410539150238,
        1.0
      ],
      "type": "VEC4"
    },
    {
      "bufferView": 1,
      "byteOffset": 25112,
      "componentType": 5126,
      "count": 454,
      "max": [
        0.8220735788345337,
        0.2948271632194519
      ],
      "min": [
        0.5081434845924377,
        0.028119195252656937
      ],
      "type": "VEC2"
    },
    {
      "bufferView": 0,
      "byteOffset": 56184,
      "componentType": 5125,
      "count": 2544,
      "type": "SCALAR"
    },
    {
      "bufferView": 2,
      "byteOffset": 86232,
      "componentType": 5126,
      "count": 3596,
      "max": [
        31.514690399169922,
        37.65739440917969,
        11.805961608886719
      ],
      "min": [
        -31.514690399169922,
        -26.88523292541504,
        -42.5428352355957
      ],
      "type": "VEC3"
    },
    {
      "bufferView": 2,
      "byteOffset": 129384,
      "componentType": 5126,
      "count": 3596,
      "max": [
        0.9990142583847046,
        0.9999225735664368,
        0.9981997013092041
      ],
      "min": [
        -0.9990142583847046,
        -0.9996369481086731,
        -0.9981977939605713
      ],
      "type": "VEC3"
    },
    {
      "bufferView": 3,
      "byteOffset": 57488,
      "componentType": 5126,
      "count": 3596,
      "max": [
        0.9636473655700684,
        0.996340274810791,
        0.99979168176651,
        1.0
      ],
      "min": [
        -0.9999681115150452,
        -0.9963379502296448,
        -0.9997917413711548,
        1.0
      ],
      "type": "VEC4"
    },
    {
      "bufferView": 1,
      "byteOffset": 28744,
      "componentType": 5126,
      "count": 3596,
      "max": [
        0.9747456312179565,
        0.7867388129234314
      ],
      "min": [
        0.0,
        2.9573141091532307e-06
      ],
      "type": "VEC2"
    },
    {
      "bufferView": 0,
      "byteOffset": 66360,
      "componentType": 5125,
      "count": 7536,
      "type": "SCALAR"
    },
    {
      "bufferView": 2,
      "byteOffset": 172536,
      "componentType": 5126,
      "count": 2450,
      "max": [
        69.91860961914063,
        22.66954803466797,
        15.406018257141113
      ],
      "min": [
        -12.301299095153809,
        -52.98367691040039,
        -41.89868927001953
      ],
      "type": "VEC3"
    },
    {
      "bufferView": 2,
      "byteOffset": 201936,
      "componentType": 5126,
      "count": 2450,
      "max": [
        0.999955952167511,
        0.999997615814209,
        0.9999987483024597
      ],
      "min": [
        -0.999955952167511,
        -0.9999999403953552,
        -0.999977707862854
      ],
      "type": "VEC3"
    },
    {
      "bufferView": 3,
      "byteOffset": 115024,
      "componentType": 5126,
      "count": 2450,
      "max": [
        1.0,
        0.9949048161506653,
        0.981804609298706,
        1.0
      ],
      "min": [
        -0.9936661720275879,
        -0.9950836896896362,
        -0.9982569217681885,
        -1.0
      ],
      "type": "VEC4"
    },
    {
      "bufferView": 1,
      "byteOffset": 57512,
      "componentType": 5126,
      "count": 2450,
      "max": [
        0.9994539022445679,
        0.8699988126754761
      ],
      "min": [
        0.0,
        9.989906579917218e-18
      ],
      "type": "VEC2"
    },
    {
      "bufferView": 0,
      "byteOffset": 96504,
      "componentType": 5125,
      "count": 6624,
      "type": "SCALAR"
    }
  ],
  "asset": {
    "extras": {
      "author": "BNova3DArt (https://sketchfab.com/bnova3dart)",
      "license": "CC-BY-NC-SA-4.0 (http://creativecommons.org/licenses/by-nc-sa/4.0/)",
      "source": "https://sketchfab.com/3d-models/little-companion-robot-for-games-07460f9e9e554af5974a071e65cfee25",
      "title": "Little Companion Robot For Games"
    },
    "generator": "Sketchfab-13.74.0",
    "version": "2.0"
  },
  "bufferViews": [
    {
      "buffer": 0,
      "byteLength": 123000,
      "name": "floatBufferViews",
      "target": 34963
    },
    {
      "buffer": 0,
      "byteLength": 77112,
      "byteOffset": 123000,
      "byteStride": 8,
      "name": "floatBufferViews",
      "target": 34962
    },
    {
      "buffer": 0,
      "byteLength": 231336,
      "byteOffset": 200112,
      "byteStride": 12,
      "name": "floatBufferViews",
      "target": 34962
    },
    {
      "buffer": 0,
      "byteLength": 154224,
      "byteOffset": 431448,
      "byteStride": 16,
      "name": "floatBufferViews",
      "target": 34962
    }
  ],
  "buffers": [
    {
      "byteLength": 585672,
      "uri": "scene.bin"
    }
  ],
  "images": [
    {
      "uri": "textures/Scene_-_Root_baseColor.jpeg"
    },
    {
      "uri": "textures/Scene_-_Root_metallicRoughness.png"
    },
    {
      "uri": "textures/Scene_-_Root_emissive.jpeg"
    },
    {
      "uri": "textures/Scene_-_Root_normal.jpeg"
    }
  ],
  "materials": [
    {
      "doubleSided": true,
      "emissiveFactor": [
        1.0,
        1.0,
        1.0
      ],
      "emissiveTexture": {
        "index": 2
      },
      "name": "Scene_-_Root",
      "normalTexture": {
        "index": 3
      },
      "occlusionTexture": {
        "index": 1
      },
      "pbrMetallicRoughness": {
        "baseColorTexture": {
          "index": 0
        },
        "metallicRoughnessTexture": {
          "index": 1
        },
        "roughnessFactor": 0.6
      }
    }
  ],
  "meshes": [
    {
      "name": "SideStripes__0",
      "primitives": [
        {
          "attributes": {
            "NORMAL": 1,
            "POSITION": 0,
            "TANGENT": 2,
            "TEXCOORD_0": 3
          },
          "indices": 4,
          "material": 0,
          "mode": 4
        }
      ]
    },
    {
      "name": "FrontGlass__0",
      "primitives": [
        {
          "attributes": {
            "NORMAL": 6,
            "POSITION": 5,
            "TANGENT": 7,
            "TEXCOORD_0": 8
          },
          "indices": 9,
          "material": 0,
          "mode": 4
        }
      ]
    },
    {
      "name": "BackPanel__0",
      "primitives": [
        {
          "attributes": {
            "NORMAL": 11,
            "POSITION": 10,
            "TANGENT": 12,
            "TEXCOORD_0": 13
          },
          "indices": 14,
          "material": 0,
          "mode": 4
        }
      ]
    },
    {
      "name": "EnergyBall__0",
      "primitives": [
        {
          "attributes": {
            "NORMAL": 16,
            "POSITION": 15,
            "TANGENT": 17,
            "TEXCOORD_0": 18
          },
          "indices": 19,
          "material": 0,
          "mode": 4
        }
      ]
    },
    {
      "name": "SidePanel__0",
      "primitives": [
        {
          "attributes": {
            "NORMAL": 21,
            "POSITION": 20,
            "TANGENT": 22,
            "TEXCOORD_0": 23
          },
          "indices": 24,
          "material": 0,
          "mode": 4
        }
      ]
    },
    {
      "name": "Ears__0",
      "primitives": [
        {
          "attributes": {
            "NORMAL": 26,
            "POSITION": 25,
            "TANGENT": 27,
            "TEXCOORD_0": 28
          },
          "indices": 29,
          "material": 0,
          "mode": 4
        }
      ]
    }
  ],
  "nodes": [
    {
      "children": [
        1
      ],
      "matrix": [
        1.0,
        0.0,
        0.0,
        0.0,
        0.0,
        2.220446049250313e-16,
        -1.0,
        0.0,
        0.0,
        1.0,
        2.220446049250313e-16,
        0.0,
        0.0,
        0.0,
        0.0,
        1.0
      ],
      "name": "Sketchfab_model"
    },
    {
      "children": [
        2
      ],
      "matrix": [
        0.02539999969303608,
        0.0,
        0.0,
        0.0,
        0.0,
        0.0,
        0.02539999969303608,
        0.0,
        0.0,
        -0.02539999969303608,
        0.0,
        0.0,
        0.0,
        0.0,
        0.0,
        1.0
      ],
      "name": "dcd577a7f5104e3685531bbac7783306.fbx"
    },
    {
      "children": [
        3,
        5,
        7,
        9,
        11,
        13
      ],
      "name": "RootNode"
    },
    {
      "children": [
        4
      ],
      "matrix": [
        1.0,
        0.0,
        0.0,
        0.0,
        0.0,
        0.999999999999999,
        4.371138828673792e-08,
        0.0,
        0.0,
        -4.371138828673792e-08,
        0.999999999999999,
        0.0,
        0.0,
        0.0,
        0.0,
        1.0
      ],
      "name": "SideStripes"
    },
    {
      "mesh": 0,
      "name": "SideStripes__0"
    },
    {
      "children": [
        6
      ],
      "matrix": [
        1.0,
        0.0,
        0.0,
        0.0,
        0.0,
        0.9999999999999867,
        1.6292068494294582e-07,
        0.0,
        0.0,
        -1.6292068494294582e-07,
        0.9999999999999867,
        0.0,
        0.0,
        0.0,
        0.0,
        1.0
      ],
      "name": "FrontGlass"
    },
    {
      "mesh": 1,
      "name": "FrontGlass__0"
    },
    {
      "children": [
        8
      ],
      "matrix": [
        1.0,
        0.0,
        0.0,
        0.0,
        0.0,
        0.9999999999999867,
        1.6292068494294582e-07,
        0.0,
        0.0,
        -1.6292068494294582e-07,
        0.9999999999999867,
        0.0,
        0.0,
        0.0,
        0.0,
        1.0
      ],
      "name": "BackPanel"
    },
    {
      "mesh": 2,
      "name": "BackPanel__0"
    },
    {
      "children": [
        10
      ],
      "matrix": [
        1.0,
        0.0,
        0.0,
        0.0,
        0.0,
        0.9999999999999867,
        1.6292068494294582e-07,
        0.0,
        0.0,
        -1.6292068494294582e-07,
        0.9999999999999867,
        0.0,
        0.0,
        0.0,
        0.0,
        1.0
      ],
      "name": "EnergyBall"
    },
    {
      "mesh": 3,
      "name": "EnergyBall__0"
    },
    {
      "children": [
        12
      ],
      "matrix": [
        1.0,
        0.0,
        0.0,
        0.0,
        0.0,
        0.9999999999999867,
        1.6292068494294582e-07,
        0.0,
        0.0,
        -1.6292068494294582e-07,
        0.9999999999999867,
        0.0,
        0.0,
        0.0,
        0.0,
        1.0
      ],
      "name": "SidePanel"
    },
    {
      "mesh": 4,
      "name": "SidePanel__0"
    },
    {
      "children": [
        14
      ],
      "matrix": [
        -0.40173605095323117,
        0.402842044939661,
        -0.5599555970758107,
        0.0,
        0.7834496339986607,
        0.781298348359509,
        -2.4595209476380685e-07,
        0.0,
        0.47547958881621083,
        -0.4767890254468095,
        -0.6841398859770776,
        0.0,
        34.480560302734375,
        37.461875915527344,
        -8.922239303588867,
        1.0
      ],
      "name": "Ears"
    },
    {
      "children": [
        15
      ],
      "matrix": [
        1.0,
        0.0,
        -0.0,
        0.0,
        0.0,
        1.0,
        0.0,
        0.0,
        0.0,
        0.0,
        1.0,
        0.0,
        -2.86102294921875e-06,
        -1.7382594347000122,
        -7.350544452667236,
        1.0
      ],
      "name": "Object_14"
    },
    {
      "mesh": 5,
      "name": "Ears__0"
    }
  ],
  "samplers": [
    {
      "magFilter": 9729,
      "minFilter": 9987,
      "wrapS": 10497,
      "wrapT": 10497
    }
  ],
  "scene": 0,
  "scenes": [
    {
      "name": "Sketchfab_Scene",
      "nodes": [
        0
      ]
    }
  ],
  "textures": [
    {
      "sampler": 0,
      "source": 0
    },
    {
      "sampler": 0,
      "source": 1
    },
    {
      "sampler": 0,
      "source": 2
    },
    {
      "sampler": 0,
      "source": 3
    }
  ]
}
